<?xml version="1.0" encoding="utf-8"?>
<svg id="Calque_1" x="0px" y="0px" viewBox="146 244 519 91" preserveAspectRatio="none" xmlns="http://www.w3.org/2000/svg">
  <g>
    <g>
      <path fill="#B3A400" d="M270.825,324.18c-5.162-3.354-9.237-7.825-12.779-12.614l0,0c-7.033-9.595-12.244-20.727-18.208-29.087&#10;&#9;&#9;&#9;l0,0c-3.953-5.603-8.076-9.781-12.653-11.965l0,0c-2.637-1.258-5.473-1.971-8.984-1.984l0,0c-4.6,0.027-8.064,1.214-11.394,3.346&#10;&#9;&#9;&#9;l0,0c-3.307,2.138-6.412,5.381-9.392,9.429l0,0c-6.011,8.084-11.218,19.153-18.057,28.88l0,0&#10;&#9;&#9;&#9;c-4.586,6.459-10.062,12.508-17.638,16.172l0,0c-4.305,2.084-9.25,3.281-14.626,3.271l0,0v-13.023&#10;&#9;&#9;&#9;c4.6-0.024,8.063-1.208,11.395-3.343l0,0c3.305-2.141,6.409-5.382,9.392-9.431l0,0c6.01-8.079,11.215-19.152,18.056-28.878l0,0&#10;&#9;&#9;&#9;c4.588-6.458,10.062-12.507,17.636-16.175l0,0c4.307-2.082,9.252-3.277,14.627-3.266l0,0c7.065-0.025,13.354,2.077,18.491,5.445&#10;&#9;&#9;&#9;l0,0c5.159,3.358,9.237,7.825,12.776,12.615l0,0c7.034,9.594,12.244,20.726,18.209,29.088l0,0&#10;&#9;&#9;&#9;c3.951,5.604,8.076,9.78,12.655,11.966l0,0c2.637,1.256,5.471,1.967,8.983,1.979l0,0v13.023c-0.042,0-0.079,0-0.121,0l0,0&#10;&#9;&#9;&#9;C282.18,329.627,275.932,327.529,270.825,324.18L270.825,324.18z"/>
    </g>
    <g>
      <path fill="#5D407B" d="M270.825,260.956c-5.162,3.358-9.237,7.825-12.779,12.618l0,0c-7.033,9.59-12.244,20.723-18.208,29.084&#10;&#9;&#9;&#9;l0,0c-3.953,5.604-8.076,9.78-12.653,11.966l0,0c-2.637,1.256-5.473,1.967-8.984,1.979l0,0c-4.6-0.024-8.064-1.208-11.394-3.343&#10;&#9;&#9;&#9;l0,0c-3.307-2.141-6.412-5.382-9.392-9.431l0,0c-6.011-8.079-11.218-19.149-18.057-28.878l0,0&#10;&#9;&#9;&#9;c-4.586-6.458-10.062-12.507-17.638-16.175l0,0c-4.305-2.082-9.25-3.277-14.626-3.266l0,0v13.022&#10;&#9;&#9;&#9;c4.6,0.027,8.063,1.21,11.395,3.342l0,0c3.305,2.138,6.409,5.381,9.392,9.429l0,0c6.01,8.084,11.215,19.153,18.056,28.88l0,0&#10;&#9;&#9;&#9;c4.588,6.459,10.062,12.508,17.636,16.172l0,0c4.307,2.084,9.252,3.281,14.627,3.271l0,0c7.065,0.025,13.354-2.08,18.491-5.444&#10;&#9;&#9;&#9;l0,0c5.159-3.357,9.237-7.828,12.776-12.614l0,0c7.034-9.598,12.244-20.729,18.209-29.09l0,0&#10;&#9;&#9;&#9;c3.951-5.603,8.076-9.781,12.655-11.965l0,0c2.637-1.254,5.471-1.971,8.983-1.981l0,0v-13.021c-0.042,0-0.079,0-0.121,0l0,0&#10;&#9;&#9;&#9;C282.18,255.511,275.932,257.608,270.825,260.956L270.825,260.956z"/>
    </g>
    <path fill="#B3A400" d="M208.355,256.928c-1.666,0.502-3.264,1.116-4.781,1.848c-7.574,3.668-13.048,9.717-17.636,16.175&#10;&#9;&#9;c-6.841,9.727-12.046,20.799-18.056,28.878c-2.982,4.049-6.086,7.29-9.392,9.431c-3.331,2.135-6.794,3.318-11.395,3.343v13.023&#10;&#9;&#9;c5.376,0.01,10.322-1.188,14.626-3.271c7.575-3.664,13.051-9.713,17.638-16.172c6.838-9.727,12.046-20.796,18.057-28.88&#10;&#9;&#9;c2.98-4.048,6.084-7.291,9.392-9.429c0.51-0.326,1.03-0.624,1.547-0.906V256.928z"/>
    <g>
      <path fill="#706F6F" d="M518.194,295.234l16.182-37.784h11.039l-23.13,51.012h-8.276l-23.127-51.012h11.135L518.194,295.234z"/>
      <path fill="#706F6F" d="M549.996,244.762h10.184v9.517h-10.184V244.762z M549.996,257.45h10.184v50.82h-10.184V257.45z"/>
      <path fill="#706F6F" d="M348.076,308.271h11.039l-23.125-51.009h-8.28l-23.125,51.009h11.134l5.455-12.735h21.447L348.076,308.271&#10;&#9;&#9;&#9;z M324.955,286.701l6.944-16.212l6.942,16.212H324.955z"/>
      <path fill="#706F6F" d="M645.705,308.271h11.038l-23.125-51.009h-8.281l-23.124,51.009h11.134l5.454-12.735h21.446&#10;&#9;&#9;&#9;L645.705,308.271z M622.586,286.701l6.939-16.212l6.94,16.212H622.586z"/>
      <path fill="#706F6F" d="M403.271,308.271h-25.41c-7.043,0-11.23-1.331-14.561-4.566c-3.236-3.14-4.473-7.232-4.473-14.465V257.45&#10;&#9;&#9;&#9;h10.182v29.886c0,5.898,0.381,7.898,1.903,9.516c1.525,1.525,3.334,1.902,9.52,1.902h12.655V257.45h10.184V308.271z"/>
      <path fill="#706F6F" d="M444.795,298.753v9.517h-12.66c-7.035,0-11.228-1.331-14.558-4.566c-3.235-3.234-4.473-7.232-4.473-14.465&#10;&#9;&#9;&#9;v-22.271h-6.377v-9.517h6.377v-12.657h10.181v12.657h17.033l-1.232,9.517h-15.801v22.271c0,7.996,2.096,9.706,11.424,9.515&#10;&#9;&#9;&#9;H444.795z"/>
      <path fill="#706F6F" d="M491.495,289.239c0,7.233-1.235,11.326-4.474,14.465c-3.331,3.235-7.517,4.566-14.561,4.566h-7.613&#10;&#9;&#9;&#9;c-7.044,0-11.23-1.331-14.561-4.566c-3.232-3.14-4.473-7.232-4.473-14.465v-12.753c0-7.231,1.24-11.326,4.473-14.465&#10;&#9;&#9;&#9;c3.33-3.237,7.517-4.57,14.561-4.57h7.613c7.044,0,11.229,1.333,14.561,4.57c3.238,3.139,4.474,7.234,4.474,14.465V289.239z&#10;&#9;&#9;&#9; M455.998,287.336c0,5.898,0.382,7.898,1.901,9.516c1.525,1.525,3.331,1.902,9.52,1.902h2.47c6.187,0,7.998-0.377,9.521-1.902&#10;&#9;&#9;&#9;c1.524-1.618,1.904-3.618,1.904-9.516v-8.949c0-5.899-0.38-7.898-1.904-9.516c-1.522-1.523-3.334-1.904-9.521-1.904h-2.47&#10;&#9;&#9;&#9;c-6.188,0-7.994,0.381-9.52,1.904c-1.52,1.617-1.901,3.616-1.901,9.516V287.336z"/>
      <g>
        <path fill="#9D9D9C" d="M321.714,315.688h3.559l-8.558,13.67h-3.362l-8.556-13.67h3.526l6.694,11.648h0.066L321.714,315.688z"/>
        <path fill="#9D9D9C" d="M332.39,319.115c5.457,0,7.938,2.685,7.938,5.253c0,2.574-2.482,5.259-7.938,5.259&#10;&#9;&#9;&#9;&#9;c-5.452,0-7.935-2.685-7.935-5.259C324.455,321.8,326.938,319.115,332.39,319.115z M332.39,328.178&#10;&#9;&#9;&#9;&#9;c4.117,0,4.966-2.479,4.966-3.81c0-1.33-0.849-3.807-4.966-3.807c-4.114,0-4.962,2.477-4.962,3.807&#10;&#9;&#9;&#9;&#9;C327.428,325.699,328.276,328.178,332.39,328.178z"/>
        <path fill="#9D9D9C" d="M347.123,320.789v6.477c0,0.777,1.144,0.777,1.73,0.777h1.012v1.315c-1.045,0.06-1.86,0.131-2.154,0.131&#10;&#9;&#9;&#9;&#9;c-2.843,0-3.463-0.933-3.463-2.128v-6.572h-2.318v-1.388h2.318v-2.78h2.875v2.78h2.742v1.388H347.123z"/>
        <path fill="#9D9D9C" d="M355.942,329.358h-2.875v-9.957h2.712v1.657h0.064c1.144-1.166,2.646-1.943,4.802-1.943&#10;&#9;&#9;&#9;&#9;c0.358,0,0.52,0.018,0.749,0.057v1.733h-1.075c-2.678,0-4.377,1.218-4.377,2.664V329.358z"/>
        <path fill="#9D9D9C" d="M378.051,326.236c-0.097,0.473-0.882,1.885-3.036,2.722c-0.782,0.305-1.894,0.685-4.637,0.685&#10;&#9;&#9;&#9;&#9;c-4.802,0-7.643-2.113-7.643-4.988c0-3.084,2.547-5.539,8.198-5.539c4.931,0,7.35,2.283,7.35,5.806h-12.479&#10;&#9;&#9;&#9;&#9;c0,2.076,1.667,3.277,4.965,3.277c2.712,0,4.312-1.22,4.41-1.962H378.051z M375.31,323.588c-0.162-1.543-1.276-2.972-4.768-2.972&#10;&#9;&#9;&#9;&#9;c-2.646,0-4.738,1.429-4.738,2.972H375.31z"/>
        <path fill="#9D9D9C" d="M390.564,319.401h2.708v1.408h0.067c0.687-0.573,1.99-1.694,5.095-1.694c4.539,0,7.121,2.171,7.121,4.969&#10;&#9;&#9;&#9;&#9;c0,2.38-1.698,5.559-7.512,5.559c-2.286,0-3.79-0.625-4.539-1.331h-0.067v4.988h-2.872V319.401z M397.978,328.198&#10;&#9;&#9;&#9;&#9;c3.135,0,4.606-1.659,4.606-3.845c0-1.279-0.231-3.737-4.673-3.737c-4.146,0-4.603,2.612-4.603,4.23&#10;&#9;&#9;&#9;&#9;C393.308,327.492,396.146,328.198,397.978,328.198z"/>
        <path fill="#9D9D9C" d="M408.852,322.428c0.132-2.38,2.84-3.312,7.057-3.312c1.369,0,6.333,0.227,6.333,2.78v5.729&#10;&#9;&#9;&#9;&#9;c0,0.419,0.361,0.593,0.95,0.593c0.264,0,0.619-0.039,0.945-0.078v1.22c-0.49,0.078-0.912,0.191-1.566,0.191&#10;&#9;&#9;&#9;&#9;c-2.548,0-2.942-0.762-3.038-1.525c-1.112,0.703-2.84,1.618-6.174,1.618c-3.137,0-5.354-1.157-5.354-2.874&#10;&#9;&#9;&#9;&#9;c0-0.837,0.421-2.779,5.192-3.124l4.736-0.344c0.685-0.036,1.498-0.186,1.498-1.178c0-1.048-1.304-1.618-4.016-1.618&#10;&#9;&#9;&#9;&#9;c-3.262,0-3.723,1.16-3.917,1.923H408.852z M419.371,324.275c-0.461,0.209-1.179,0.358-4.737,0.628&#10;&#9;&#9;&#9;&#9;c-1.405,0.113-3.659,0.365-3.659,1.617c0,1.086,0.945,1.735,3.104,1.735c2.676,0,5.292-1.015,5.292-2.345V324.275z"/>
        <path fill="#9D9D9C" d="M436.809,322.235c-0.03-0.626-0.419-1.674-4.049-1.674c-0.882,0-3.396,0.174-3.396,1.405&#10;&#9;&#9;&#9;&#9;c0,0.823,0.882,1.014,3.104,1.334l2.877,0.422c3.558,0.512,4.795,1.275,4.795,2.628c0,2.057-2.899,3.292-6.757,3.292&#10;&#9;&#9;&#9;&#9;c-6.764,0-7.251-2.281-7.35-3.484h2.778c0.096,0.784,0.486,2.04,4.535,2.04c2.061,0,3.924-0.479,3.924-1.584&#10;&#9;&#9;&#9;&#9;c0-0.796-0.951-1.065-3.397-1.424l-3.331-0.479c-2.386-0.344-3.955-1.046-3.955-2.422c0-2.183,3.106-3.175,6.467-3.175&#10;&#9;&#9;&#9;&#9;c6.109,0,6.536,2.625,6.536,3.12H436.809z"/>
        <path fill="#9D9D9C" d="M453.143,322.235c-0.033-0.626-0.426-1.674-4.051-1.674c-0.883,0-3.397,0.174-3.397,1.405&#10;&#9;&#9;&#9;&#9;c0,0.823,0.88,1.014,3.104,1.334l2.876,0.422c3.559,0.512,4.797,1.275,4.797,2.628c0,2.057-2.906,3.292-6.758,3.292&#10;&#9;&#9;&#9;&#9;c-6.764,0-7.254-2.281-7.35-3.484h2.775c0.099,0.784,0.49,2.04,4.541,2.04c2.058,0,3.92-0.479,3.92-1.584&#10;&#9;&#9;&#9;&#9;c0-0.796-0.951-1.065-3.396-1.424l-3.334-0.479c-2.383-0.344-3.949-1.046-3.949-2.422c0-2.183,3.104-3.175,6.464-3.175&#10;&#9;&#9;&#9;&#9;c6.111,0,6.533,2.625,6.533,3.12H453.143z"/>
        <path fill="#9D9D9C" d="M474.272,326.236c-0.099,0.473-0.879,1.885-3.038,2.722c-0.783,0.305-1.893,0.685-4.635,0.685&#10;&#9;&#9;&#9;&#9;c-4.801,0-7.645-2.113-7.645-4.988c0-3.084,2.547-5.539,8.195-5.539c4.934,0,7.349,2.283,7.349,5.806h-12.474&#10;&#9;&#9;&#9;&#9;c0,2.076,1.662,3.277,4.963,3.277c2.71,0,4.312-1.22,4.408-1.962H474.272z M471.527,323.588&#10;&#9;&#9;&#9;&#9;c-0.161-1.543-1.273-2.972-4.766-2.972c-2.649,0-4.736,1.429-4.736,2.972H471.527z"/>
        <path fill="#9D9D9C" d="M477.702,319.401h2.711v1.408h0.063c0.688-0.573,1.994-1.694,5.098-1.694&#10;&#9;&#9;&#9;&#9;c4.539,0,7.116,2.171,7.116,4.969c0,2.38-1.692,5.559-7.511,5.559c-2.284,0-3.788-0.625-4.538-1.331h-0.066v4.988h-2.873V319.401&#10;&#9;&#9;&#9;&#9;z M485.114,328.198c3.137,0,4.604-1.659,4.604-3.845c0-1.279-0.228-3.737-4.671-3.737c-4.147,0-4.602,2.612-4.602,4.23&#10;&#9;&#9;&#9;&#9;C480.446,327.492,483.284,328.198,485.114,328.198z"/>
        <path fill="#9D9D9C" d="M503.048,319.115c5.453,0,7.936,2.685,7.936,5.253c0,2.574-2.482,5.259-7.936,5.259&#10;&#9;&#9;&#9;&#9;c-5.454,0-7.936-2.685-7.936-5.259C495.112,321.8,497.594,319.115,503.048,319.115z M503.048,328.178&#10;&#9;&#9;&#9;&#9;c4.113,0,4.963-2.479,4.963-3.81c0-1.33-0.85-3.807-4.963-3.807c-4.114,0-4.964,2.477-4.964,3.807&#10;&#9;&#9;&#9;&#9;C498.084,325.699,498.934,328.178,503.048,328.178z"/>
        <path fill="#9D9D9C" d="M517.517,329.358h-2.874v-9.957h2.709v1.657h0.066c1.142-1.166,2.648-1.943,4.802-1.943&#10;&#9;&#9;&#9;&#9;c0.358,0,0.522,0.018,0.753,0.057v1.733h-1.079c-2.676,0-4.377,1.218-4.377,2.664V329.358z"/>
        <path fill="#9D9D9C" d="M529.963,320.789v6.477c0,0.777,1.143,0.777,1.729,0.777h1.017v1.315&#10;&#9;&#9;&#9;&#9;c-1.047,0.06-1.865,0.131-2.159,0.131c-2.84,0-3.462-0.933-3.462-2.128v-6.572h-2.32v-1.388h2.32v-2.78h2.876v2.78h2.745v1.388&#10;&#9;&#9;&#9;&#9;H529.963z"/>
        <path fill="#9D9D9C" d="M554.295,322.235c-0.032-0.626-0.424-1.674-4.051-1.674c-0.882,0-3.396,0.174-3.396,1.405&#10;&#9;&#9;&#9;&#9;c0,0.823,0.882,1.014,3.104,1.334l2.873,0.422c3.558,0.512,4.802,1.275,4.802,2.628c0,2.057-2.905,3.292-6.764,3.292&#10;&#9;&#9;&#9;&#9;c-6.76,0-7.247-2.281-7.346-3.484h2.777c0.096,0.784,0.485,2.04,4.539,2.04c2.054,0,3.916-0.479,3.916-1.584&#10;&#9;&#9;&#9;&#9;c0-0.796-0.947-1.065-3.396-1.424l-3.331-0.479c-2.38-0.344-3.949-1.046-3.949-2.422c0-2.183,3.101-3.175,6.464-3.175&#10;&#9;&#9;&#9;&#9;c6.108,0,6.532,2.625,6.532,3.12H554.295z"/>
        <path fill="#9D9D9C" d="M575.429,326.236c-0.103,0.473-0.885,1.885-3.042,2.722c-0.786,0.305-1.895,0.685-4.636,0.685&#10;&#9;&#9;&#9;&#9;c-4.803,0-7.643-2.113-7.643-4.988c0-3.084,2.548-5.539,8.197-5.539c4.934,0,7.351,2.283,7.351,5.806h-12.479&#10;&#9;&#9;&#9;&#9;c0,2.076,1.667,3.277,4.966,3.277c2.711,0,4.311-1.22,4.409-1.962H575.429z M572.683,323.588&#10;&#9;&#9;&#9;&#9;c-0.166-1.543-1.275-2.972-4.771-2.972c-2.643,0-4.734,1.429-4.734,2.972H572.683z M568.632,318.069h-2.19l2.909-2.686h3.527&#10;&#9;&#9;&#9;&#9;L568.632,318.069z"/>
        <path fill="#9D9D9C" d="M582.354,329.358h-2.876v-9.957h2.708v1.657h0.066c1.142-1.166,2.646-1.943,4.802-1.943&#10;&#9;&#9;&#9;&#9;c0.359,0,0.52,0.018,0.75,0.057v1.733h-1.079c-2.677,0-4.371,1.218-4.371,2.664V329.358z"/>
        <path fill="#9D9D9C" d="M604.461,326.236c-0.096,0.473-0.882,1.885-3.037,2.722c-0.784,0.305-1.896,0.685-4.638,0.685&#10;&#9;&#9;&#9;&#9;c-4.806,0-7.643-2.113-7.643-4.988c0-3.084,2.545-5.539,8.201-5.539c4.928,0,7.344,2.283,7.344,5.806h-12.477&#10;&#9;&#9;&#9;&#9;c0,2.076,1.667,3.277,4.966,3.277c2.708,0,4.311-1.22,4.406-1.962H604.461z M601.717,323.588&#10;&#9;&#9;&#9;&#9;c-0.162-1.543-1.274-2.972-4.771-2.972c-2.646,0-4.734,1.429-4.734,2.972H601.717z M597.668,318.069h-2.189l2.907-2.686h3.528&#10;&#9;&#9;&#9;&#9;L597.668,318.069z"/>
        <path fill="#9D9D9C" d="M622.033,329.358h-2.873v-6.13c0-1.733-0.851-2.612-3.661-2.612c-1.632,0-4.508,0.61-4.508,3.318v5.424&#10;&#9;&#9;&#9;&#9;h-2.873v-9.957h2.711v1.408h0.066c0.621-0.534,2.219-1.694,5.16-1.694c2.644,0,5.978,0.628,5.978,3.465V329.358z"/>
        <path fill="#9D9D9C" d="M626.341,317.59v-1.901h2.877v1.901H626.341z M629.218,329.358h-2.877v-9.957h2.877V329.358z"/>
        <path fill="#9D9D9C" d="M637.058,320.789v6.477c0,0.777,1.142,0.777,1.73,0.777h1.011v1.315c-1.043,0.06-1.859,0.131-2.155,0.131&#10;&#9;&#9;&#9;&#9;c-2.84,0-3.462-0.933-3.462-2.128v-6.572h-2.32v-1.388h2.32v-2.78h2.876v2.78h2.741v1.388H637.058z"/>
        <path fill="#9D9D9C" d="M657.111,326.236c-0.099,0.473-0.883,1.885-3.038,2.722c-0.783,0.305-1.896,0.685-4.638,0.685&#10;&#9;&#9;&#9;&#9;c-4.802,0-7.642-2.113-7.642-4.988c0-3.084,2.547-5.539,8.198-5.539c4.934,0,7.343,2.283,7.343,5.806h-12.474&#10;&#9;&#9;&#9;&#9;c0,2.076,1.669,3.277,4.964,3.277c2.715,0,4.311-1.22,4.409-1.962H657.111z M654.367,323.588&#10;&#9;&#9;&#9;&#9;c-0.165-1.543-1.272-2.972-4.77-2.972c-2.644,0-4.736,1.429-4.736,2.972H654.367z M650.314,318.069h-2.188l2.91-2.686h3.527&#10;&#9;&#9;&#9;&#9;L650.314,318.069z"/>
      </g>
      <g>
        <path fill="#706F6F" d="M654.865,261.935c0-2.473,2.006-4.298,4.378-4.298c2.351,0,4.353,1.825,4.353,4.298&#10;&#9;&#9;&#9;&#9;c0,2.498-2.002,4.319-4.353,4.319C656.871,266.254,654.865,264.433,654.865,261.935z M659.243,265.539&#10;&#9;&#9;&#9;&#9;c1.949,0,3.485-1.531,3.485-3.604c0-2.039-1.536-3.579-3.485-3.579c-1.971,0-3.51,1.54-3.51,3.579&#10;&#9;&#9;&#9;&#9;C655.733,264.008,657.272,265.539,659.243,265.539z M658.334,264.433h-0.753v-4.971h1.89c1.178,0,1.757,0.434,1.757,1.412&#10;&#9;&#9;&#9;&#9;c0,0.891-0.562,1.278-1.285,1.37l1.411,2.189h-0.843l-1.312-2.157h-0.864V264.433z M659.23,261.64&#10;&#9;&#9;&#9;&#9;c0.64,0,1.208-0.046,1.208-0.812c0-0.617-0.556-0.728-1.082-0.728h-1.022v1.54H659.23z"/>
      </g>
      <path fill="#706F6F" d="M571.499,308.256c-3.743,0-6.781-3.036-6.781-6.782c0-1.898,0.784-3.618,2.04-4.843l0.019-0.021&#10;&#9;&#9;&#9;l29.294-29.648h-29.02v-9.511h38.14l-0.284-0.001c3.137,0,5.684,2.546,5.684,5.687c0,1.473-0.562,2.816-1.483,3.826h-0.005&#10;&#9;&#9;&#9;l-31.389,31.762H609.7l-5.419,9.532h-32.931H571.499z"/>
    </g>
  </g>
</svg>